<?xml version="1.0" encoding="UTF-8" standalone="no"?>
<svg
   xmlns:dc="http://purl.org/dc/elements/1.1/"
   xmlns:cc="http://creativecommons.org/ns#"
   xmlns:rdf="http://www.w3.org/1999/02/22-rdf-syntax-ns#"
   xmlns:svg="http://www.w3.org/2000/svg"
   xmlns="http://www.w3.org/2000/svg"
   id="svg8"
   version="1.1"
   viewBox="0 0 43.899999 50.799998"
   height="5.0799999cm"
   width="4.3899999cm">
  <defs
     id="defs2" />
  <metadata
     id="metadata5">
    <rdf:RDF>
      <cc:Work
         rdf:about="">
        <dc:format>image/svg+xml</dc:format>
        <dc:type
           rdf:resource="http://purl.org/dc/dcmitype/StillImage" />
        <dc:title></dc:title>
      </cc:Work>
    </rdf:RDF>
  </metadata>
  <g
     transform="translate(0,-246.20005)"
     id="layer1">
    <path
       style="opacity:1;vector-effect:none;fill:#1a1a1a;fill-opacity:1;stroke:none;stroke-width:0.10038963;stroke-linecap:butt;stroke-linejoin:miter;stroke-miterlimit:4;stroke-dasharray:none;stroke-dashoffset:0;stroke-opacity:1;paint-order:fill markers stroke"
       d="M 21.949998,297.00005 -1.66755e-6,284.30006 v -12.70001 -12.7 l 21.94999966755,-12.7 21.95,12.7 v 12.7 12.70001 z"
       id="path337" />
    <path
       id="path341"
       d="m 13.272948,283.02177 h 6.0431 l 6.04309,-20.43888 H 7.2298583 c 2.03339,6.80189 4.4624897,13.37761 6.0430897,20.43888 z"
       style="fill:#f5d823;fill-opacity:1;stroke:none;stroke-width:0.02721001px;stroke-linecap:butt;stroke-linejoin:miter;stroke-opacity:1" />
    <path
       style="color:#000000;font-style:normal;font-variant:normal;font-weight:normal;font-stretch:normal;font-size:medium;line-height:normal;font-family:sans-serif;font-variant-ligatures:normal;font-variant-position:normal;font-variant-caps:normal;font-variant-numeric:normal;font-variant-alternates:normal;font-feature-settings:normal;text-indent:0;text-align:start;text-decoration:none;text-decoration-line:none;text-decoration-style:solid;text-decoration-color:#000000;letter-spacing:normal;word-spacing:normal;text-transform:none;writing-mode:lr-tb;direction:ltr;text-orientation:mixed;dominant-baseline:auto;baseline-shift:baseline;text-anchor:start;white-space:normal;shape-padding:0;clip-rule:nonzero;display:inline;overflow:visible;visibility:visible;opacity:1;isolation:auto;mix-blend-mode:normal;color-interpolation:sRGB;color-interpolation-filters:linearRGB;solid-color:#000000;solid-opacity:1;vector-effect:none;fill:none;fill-opacity:1;fill-rule:nonzero;stroke:none;stroke-width:0.63813573;stroke-linecap:butt;stroke-linejoin:miter;stroke-miterlimit:4;stroke-dasharray:none;stroke-dashoffset:0;stroke-opacity:1;color-rendering:auto;image-rendering:auto;shape-rendering:auto;text-rendering:auto;enable-background:accumulate"
       d="M 16.313958,256.92824 6.1387083,262.9285 h 1.16788 19.1814897 z m 0,0.74131 7.83573,4.62044 H 8.4786183 Z"
       id="path347" />
    <path
       style="opacity:1;vector-effect:none;fill:#ffffff;fill-opacity:1;fill-rule:evenodd;stroke:none;stroke-width:0.05194684;stroke-linecap:square;stroke-linejoin:miter;stroke-miterlimit:4;stroke-dasharray:none;stroke-dashoffset:0;stroke-opacity:1;paint-order:normal"
       d="m 16.302628,255.06166 c -0.50646,0.0349 -1.16788,0.85862 -1.44756,1.68405 -0.22678,0.70477 -0.69544,1.22163 -0.77859,1.42845 0.26457,-0.10078 0.57827,-0.16133 0.6652,-0.24922 0.0756,-0.0868 0.37795,-0.21411 0.48756,-0.25656 0.11339,-0.0335 0.37795,-0.0464 0.43087,-0.11659 0.11338,-0.10428 0.37795,-0.19108 0.52157,-0.22158 0.18898,-0.039 0.44221,-0.0586 0.6274,-0.0116 0.63496,0.15925 1.13386,0.7231 1.74993,0.93756 0.11338,-0.0691 -1.37953,-3.19448 -2.26016,-3.19448 z"
       id="path353" />
    <path
       style="color:#000000;font-style:normal;font-variant:normal;font-weight:normal;font-stretch:normal;font-size:medium;line-height:normal;font-family:sans-serif;font-variant-ligatures:normal;font-variant-position:normal;font-variant-caps:normal;font-variant-numeric:normal;font-variant-alternates:normal;font-feature-settings:normal;text-indent:0;text-align:start;text-decoration:none;text-decoration-line:none;text-decoration-style:solid;text-decoration-color:#000000;letter-spacing:normal;word-spacing:normal;text-transform:none;writing-mode:lr-tb;direction:ltr;text-orientation:mixed;dominant-baseline:auto;baseline-shift:baseline;text-anchor:start;white-space:normal;shape-padding:0;clip-rule:nonzero;display:inline;overflow:visible;visibility:visible;opacity:1;isolation:auto;mix-blend-mode:normal;color-interpolation:sRGB;color-interpolation-filters:linearRGB;solid-color:#000000;solid-opacity:1;vector-effect:none;fill:#ffffff;fill-opacity:1;fill-rule:nonzero;stroke:none;stroke-width:0.63813573;stroke-linecap:butt;stroke-linejoin:miter;stroke-miterlimit:4;stroke-dasharray:none;stroke-dashoffset:0;stroke-opacity:1;color-rendering:auto;image-rendering:auto;shape-rendering:auto;text-rendering:auto;enable-background:accumulate"
       d="m 24.986848,262.65282 c 0,1.34061 -5.49732,19.8037 -6.20863,19.8037 -1.82929,0.29298 -3.36378,0.32408 -4.98218,0 -0.82016,0 -5.9383997,-19.5582 -5.9383997,-19.5582 h -0.74834 c 0,0 5.3366897,20.00582 5.9368797,20.47054 2.07874,0.31954 4.19566,0.49685 6.47963,0 0.51779,-0.30008 6.07181,-17.68999 6.07181,-20.53496 z"
       id="path355" />
    <path
       style="opacity:1;vector-effect:none;fill:#ffffff;fill-opacity:1;fill-rule:evenodd;stroke:none;stroke-width:0.0370963;stroke-linecap:square;stroke-linejoin:miter;stroke-miterlimit:4;stroke-dasharray:none;stroke-dashoffset:0;stroke-opacity:1;paint-order:normal"
       d="m 15.967378,253.76511 h 0.67654 c 0.0204,0.56767 0.0756,1.15438 0,1.61746 h -0.67654 c -0.15118,-0.53916 -0.0306,-1.07831 0,-1.61746 z"
       id="path361" />
    <path
       style="fill:#ffffff;stroke:none;stroke-width:0.71023935;stroke-linecap:butt;stroke-linejoin:miter;stroke-opacity:1"
       d="m 16.314338,256.97915 c -0.58205,0 -2.0485,0.73651 -3.67748,1.6929 l 0.43465,0.43675 c 1.42488,-0.84932 2.74393,-1.52825 3.24283,-1.52825 1.28882,0 7.98388,4.47357 7.98388,4.83272 -5.4051,0.2482 -10.73878,0.28088 -15.9681397,0 0,-0.0902 0.46111,-0.46539 1.16032,-0.96836 l -0.48,-0.47966 c -1.48158,1.00451 -2.59276,1.84599 -2.59276,2.00194 6.4792497,0.34804 13.0881397,0.30754 19.7854697,0 0,-0.445 -8.29683,-5.98804 -9.89255,-5.98804 z"
       id="path367" />
    <path
       style="color:#000000;font-style:normal;font-variant:normal;font-weight:normal;font-stretch:normal;font-size:medium;line-height:normal;font-family:sans-serif;font-variant-ligatures:normal;font-variant-position:normal;font-variant-caps:normal;font-variant-numeric:normal;font-variant-alternates:normal;font-feature-settings:normal;text-indent:0;text-align:start;text-decoration:none;text-decoration-line:none;text-decoration-style:solid;text-decoration-color:#000000;letter-spacing:normal;word-spacing:normal;text-transform:none;writing-mode:lr-tb;direction:ltr;text-orientation:mixed;dominant-baseline:auto;baseline-shift:baseline;text-anchor:start;white-space:normal;shape-padding:0;clip-rule:nonzero;display:inline;overflow:visible;visibility:visible;opacity:1;isolation:auto;mix-blend-mode:normal;color-interpolation:sRGB;color-interpolation-filters:linearRGB;solid-color:#000000;solid-opacity:1;vector-effect:none;fill:#ffffff;fill-opacity:1;fill-rule:nonzero;stroke:none;stroke-width:0.54937267;stroke-linecap:butt;stroke-linejoin:miter;stroke-miterlimit:4;stroke-dasharray:none;stroke-dashoffset:0;stroke-opacity:1;color-rendering:auto;image-rendering:auto;shape-rendering:auto;text-rendering:auto;enable-background:accumulate"
       d="m 14.383378,284.04952 c -0.15118,0.35537 -0.0756,2.33618 0,2.40453 0.11339,0.21869 3.43559,0.35538 3.85134,0 0,0 0.11339,-1.14329 0,-1.526 h -0.47244 c 0,0 0.0756,0.67393 0,0.88702 -0.0756,0.24772 -2.44158,0.41005 -2.90646,0 -0.22677,-0.41004 0.0121,-1.70372 0.0121,-1.70372 z"
       id="path1356" />
    <path
       id="path1358"
       d="m 16.032768,287.42506 c -0.68032,0.002 -1.2926,0.0335 -1.35307,0.11129 -0.11339,0.17335 -0.11339,3.26336 -0.0756,5.22443 l 0.30237,0.18568 c -0.0378,-1.86703 -0.0756,-4.68089 0.0756,-4.85586 0.18897,-0.37588 2.38866,-0.3007 2.57008,0 0.18898,0.24968 0.15118,4.13236 0.0756,6.43633 l 0.30236,0.17337 c 0.0378,-2.53983 0.11339,-6.95433 -0.0378,-7.16395 -0.0378,-0.0653 -1.03182,-0.11338 -1.90489,-0.11129 z"
       clip-path="none"
       style="opacity:1;vector-effect:none;fill:#ffffff;fill-opacity:1;fill-rule:evenodd;stroke:none;stroke-width:0.02502517;stroke-linecap:square;stroke-linejoin:miter;stroke-miterlimit:4;stroke-dasharray:none;stroke-dashoffset:0;stroke-opacity:1;paint-order:normal" />
    <g
       id="text610"
       style="font-style:normal;font-variant:normal;font-weight:normal;font-stretch:normal;font-size:6.79873896px;line-height:1.25;letter-spacing:0.32381457px;word-spacing:0px;fill:#1a1a1a;fill-opacity:1;stroke:none;stroke-width:0.03238146"
       transform="scale(0.99893035,1.0010708)"
       aria-label="na">
      <path
         id="path826"
         style="letter-spacing:0.32381457px;fill:#1a1a1a;fill-opacity:1;stroke-width:0.03238146"
         d="m 15.658518,278.23566 h -0.624103 v -2.11133 q 0,-0.25562 -0.02988,-0.47804 -0.02988,-0.22574 -0.109549,-0.35188 -0.08299,-0.13943 -0.239019,-0.20583 -0.156025,-0.0697 -0.405003,-0.0697 -0.255616,0 -0.534471,0.12615 -0.278854,0.12615 -0.534471,0.32201 v 2.76863 h -0.624103 v -3.7081 h 0.624103 v 0.41164 q 0.292133,-0.24234 0.604185,-0.37845 0.312051,-0.13611 0.640701,-0.13611 0.600865,0 0.916237,0.36185 0.315371,0.36185 0.315371,1.04239 z" />
      <path
         id="path828"
         style="letter-spacing:0.32381457px;fill:#1a1a1a;fill-opacity:1;stroke-width:0.03238146"
         d="m 20.065559,278.23566 h -0.620783 v -0.39505 q -0.08299,0.0564 -0.225739,0.15935 -0.139428,0.0996 -0.272215,0.15934 -0.156026,0.0764 -0.358528,0.12615 -0.202501,0.0531 -0.474716,0.0531 -0.501275,0 -0.849843,-0.33197 -0.348568,-0.33197 -0.348568,-0.84653 0,-0.4216 0.179264,-0.68053 0.182583,-0.26226 0.517872,-0.41165 0.338609,-0.14938 0.813326,-0.2025 0.474717,-0.0531 1.019147,-0.0797 v -0.0963 q 0,-0.21246 -0.07635,-0.35189 -0.07303,-0.13943 -0.212461,-0.2191 -0.132787,-0.0764 -0.31869,-0.10291 -0.185904,-0.0266 -0.388405,-0.0266 -0.245658,0 -0.54775,0.0664 -0.302092,0.0631 -0.624103,0.1859 h -0.0332 v -0.63406 q 0.182583,-0.0498 0.527832,-0.10955 0.345248,-0.0598 0.680538,-0.0598 0.391724,0 0.680538,0.0664 0.292133,0.0631 0.504593,0.2191 0.209141,0.1527 0.318691,0.39504 0.10955,0.24234 0.10955,0.60087 z m -0.620783,-0.91292 v -1.03243 q -0.285494,0.0166 -0.673898,0.0498 -0.385085,0.0332 -0.610825,0.0963 -0.268895,0.0763 -0.43488,0.23902 -0.165985,0.15934 -0.165985,0.44152 0,0.31869 0.192543,0.48135 0.192542,0.15935 0.587586,0.15935 0.32865,0 0.600865,-0.12615 0.272215,-0.12947 0.504594,-0.30873 z" />
    </g>
    <g
       id="text614"
       style="font-style:normal;font-variant:normal;font-weight:normal;font-stretch:normal;font-size:6.79873896px;line-height:1.25;letter-spacing:0.32381457px;word-spacing:0px;fill:#f5d823;fill-opacity:1;stroke:none;stroke-width:0.54066068;stroke-miterlimit:4;stroke-dasharray:none;stroke-opacity:1;paint-order:markers stroke fill"
       transform="scale(0.99893035,1.0010708)"
       aria-label="niar">
      <path
         id="path831"
         style="letter-spacing:0.32381457px;fill:#f5d823;fill-opacity:1;stroke:none;stroke-width:0.54066068;stroke-miterlimit:4;stroke-dasharray:none;stroke-opacity:1;paint-order:markers stroke fill"
         d="m 25.858774,278.20081 h -0.624103 v -2.11133 q 0,-0.25562 -0.02988,-0.47804 -0.02988,-0.22574 -0.10955,-0.35189 -0.08299,-0.13942 -0.239018,-0.20582 -0.156026,-0.0697 -0.405003,-0.0697 -0.255617,0 -0.534472,0.12615 -0.278854,0.12615 -0.534471,0.32201 v 2.76863 h -0.624103 v -3.70811 h 0.624103 v 0.41165 q 0.292134,-0.24234 0.604185,-0.37845 0.312052,-0.13611 0.640702,-0.13611 0.600865,0 0.916236,0.36185 0.315371,0.36185 0.315371,1.04239 z" />
      <path
         id="path833"
         style="letter-spacing:0.32381457px;fill:#f5d823;fill-opacity:1;stroke:none;stroke-width:0.54066068;stroke-miterlimit:4;stroke-dasharray:none;stroke-opacity:1;paint-order:markers stroke fill"
         d="m 28.054898,273.87192 h -0.703776 v -0.64734 h 0.703776 z m -0.03984,4.32889 h -0.624103 v -3.70811 h 0.624103 z" />
      <path
         id="path835"
         style="letter-spacing:0.32381457px;fill:#f5d823;fill-opacity:1;stroke:none;stroke-width:0.54066068;stroke-miterlimit:4;stroke-dasharray:none;stroke-opacity:1;paint-order:markers stroke fill"
         d="m 32.461939,278.20081 h -0.620783 v -0.39505 q -0.08299,0.0564 -0.225739,0.15935 -0.139428,0.0996 -0.272216,0.15934 -0.156025,0.0764 -0.358527,0.12615 -0.202501,0.0531 -0.474716,0.0531 -0.501275,0 -0.849843,-0.33197 -0.348568,-0.33197 -0.348568,-0.84653 0,-0.4216 0.179264,-0.68053 0.182583,-0.26226 0.517872,-0.41165 0.338609,-0.14938 0.813326,-0.2025 0.474717,-0.0531 1.019147,-0.0797 v -0.0963 q 0,-0.21246 -0.07635,-0.35189 -0.07303,-0.13943 -0.212461,-0.2191 -0.132788,-0.0764 -0.318691,-0.10291 -0.185903,-0.0266 -0.388404,-0.0266 -0.245658,0 -0.54775,0.0664 -0.302092,0.0631 -0.624103,0.1859 h -0.0332 v -0.63406 q 0.182583,-0.0498 0.527832,-0.10955 0.345248,-0.0598 0.680538,-0.0598 0.391724,0 0.680537,0.0664 0.292134,0.0631 0.504594,0.2191 0.209141,0.1527 0.318691,0.39504 0.10955,0.24234 0.10955,0.60087 z m -0.620783,-0.91292 v -1.03243 q -0.285494,0.0166 -0.673898,0.0498 -0.385085,0.0332 -0.610825,0.0963 -0.268895,0.0764 -0.43488,0.23902 -0.165985,0.15934 -0.165985,0.44152 0,0.31869 0.192543,0.48135 0.192542,0.15935 0.587586,0.15935 0.32865,0 0.600865,-0.12615 0.272215,-0.12947 0.504594,-0.30873 z" />
      <path
         id="path837"
         style="letter-spacing:0.32381457px;fill:#f5d823;fill-opacity:1;stroke:none;stroke-width:0.54066068;stroke-miterlimit:4;stroke-dasharray:none;stroke-opacity:1;paint-order:markers stroke fill"
         d="m 36.307953,275.17324 h -0.0332 q -0.139428,-0.0332 -0.272215,-0.0465 -0.129469,-0.0166 -0.308732,-0.0166 -0.288814,0 -0.557709,0.12947 -0.268896,0.12614 -0.517873,0.32865 v 2.63252 h -0.624103 v -3.70811 h 0.624103 v 0.54775 q 0.371806,-0.29877 0.65398,-0.4216 0.285494,-0.12615 0.580947,-0.12615 0.162665,0 0.235699,0.01 0.07303,0.007 0.2191,0.0299 z" />
    </g>
    <ellipse
       ry="1.0429131"
       rx="1.0406833"
       cy="253.37697"
       cx="16.289576"
       id="path368"
       style="opacity:1;vector-effect:none;fill:#ffffff;fill-opacity:1;fill-rule:evenodd;stroke:none;stroke-width:0.02478293;stroke-linecap:square;stroke-linejoin:miter;stroke-miterlimit:4;stroke-dasharray:none;stroke-dashoffset:0;stroke-opacity:1;paint-order:normal" />
  </g>
</svg>
